<mxfile host="app.diagrams.net" modified="2023-06-28T08:07:31.609Z" agent="Mozilla/5.0 (Windows NT 10.0; Win64; x64; rv:109.0) Gecko/20100101 Firefox/114.0" etag="blagPLNdCc2pcsHTbfWp" version="21.5.1" type="google">
  <diagram name="Page-1" id="hFenDDj908uyNjxtd-g9">
    <mxGraphModel grid="1" page="1" gridSize="10" guides="1" tooltips="1" connect="1" arrows="1" fold="1" pageScale="1" pageWidth="3300" pageHeight="4681" math="0" shadow="0">
      <root>
        <mxCell id="0" />
        <mxCell id="1" parent="0" />
        <mxCell id="GUWDGtbuf75xFY82KTFk-96" value="" style="rounded=0;whiteSpace=wrap;html=1;" vertex="1" parent="1">
          <mxGeometry x="1180" y="1066" width="20" height="90" as="geometry" />
        </mxCell>
        <mxCell id="GUWDGtbuf75xFY82KTFk-84" value="" style="rounded=0;whiteSpace=wrap;html=1;" vertex="1" parent="1">
          <mxGeometry x="1040" y="940" width="20" height="80" as="geometry" />
        </mxCell>
        <mxCell id="GUWDGtbuf75xFY82KTFk-89" value="" style="rounded=0;whiteSpace=wrap;html=1;" vertex="1" parent="1">
          <mxGeometry x="900" y="790" width="20" height="280" as="geometry" />
        </mxCell>
        <mxCell id="GUWDGtbuf75xFY82KTFk-90" value="" style="rounded=0;whiteSpace=wrap;html=1;" vertex="1" parent="1">
          <mxGeometry x="755" y="747" width="20" height="73" as="geometry" />
        </mxCell>
        <mxCell id="GUWDGtbuf75xFY82KTFk-87" value="" style="rounded=0;whiteSpace=wrap;html=1;" vertex="1" parent="1">
          <mxGeometry x="475" y="330" width="20" height="30" as="geometry" />
        </mxCell>
        <mxCell id="GUWDGtbuf75xFY82KTFk-91" value="" style="rounded=0;whiteSpace=wrap;html=1;" vertex="1" parent="1">
          <mxGeometry x="620" y="360" width="20" height="1100" as="geometry" />
        </mxCell>
        <mxCell id="GUWDGtbuf75xFY82KTFk-85" value="" style="rounded=0;whiteSpace=wrap;html=1;" vertex="1" parent="1">
          <mxGeometry x="300" y="280" width="20" height="50" as="geometry" />
        </mxCell>
        <mxCell id="GUWDGtbuf75xFY82KTFk-81" value="" style="rounded=0;whiteSpace=wrap;html=1;" vertex="1" parent="1">
          <mxGeometry x="110" y="280" width="20" height="1180" as="geometry" />
        </mxCell>
        <mxCell id="GUWDGtbuf75xFY82KTFk-72" value="" style="rounded=0;whiteSpace=wrap;html=1;fillColor=none;" vertex="1" parent="1">
          <mxGeometry x="40" y="500" width="1180" height="980" as="geometry" />
        </mxCell>
        <mxCell id="GUWDGtbuf75xFY82KTFk-32" value="" style="rounded=0;whiteSpace=wrap;html=1;" vertex="1" parent="1">
          <mxGeometry x="40" y="500" width="40" height="30" as="geometry" />
        </mxCell>
        <mxCell id="GUWDGtbuf75xFY82KTFk-1" value="Web Entity" style="rounded=0;whiteSpace=wrap;html=1;" vertex="1" parent="1">
          <mxGeometry x="425" y="190" width="120" height="40" as="geometry" />
        </mxCell>
        <mxCell id="GUWDGtbuf75xFY82KTFk-2" value="Composite Agent" style="rounded=0;whiteSpace=wrap;html=1;" vertex="1" parent="1">
          <mxGeometry x="850" y="190" width="120" height="40" as="geometry" />
        </mxCell>
        <mxCell id="GUWDGtbuf75xFY82KTFk-3" value="Node" style="rounded=0;whiteSpace=wrap;html=1;" vertex="1" parent="1">
          <mxGeometry x="710" y="190" width="120" height="40" as="geometry" />
        </mxCell>
        <mxCell id="GUWDGtbuf75xFY82KTFk-4" value="Central Monitoring" style="rounded=0;whiteSpace=wrap;html=1;" vertex="1" parent="1">
          <mxGeometry x="570" y="190" width="120" height="40" as="geometry" />
        </mxCell>
        <mxCell id="GUWDGtbuf75xFY82KTFk-5" value="Web Interface" style="rounded=0;whiteSpace=wrap;html=1;" vertex="1" parent="1">
          <mxGeometry x="250" y="190" width="120" height="40" as="geometry" />
        </mxCell>
        <mxCell id="GUWDGtbuf75xFY82KTFk-6" value="User" style="rounded=0;whiteSpace=wrap;html=1;" vertex="1" parent="1">
          <mxGeometry x="60" y="190" width="120" height="40" as="geometry" />
        </mxCell>
        <mxCell id="GUWDGtbuf75xFY82KTFk-7" value="Monitoring Shard" style="rounded=0;whiteSpace=wrap;html=1;" vertex="1" parent="1">
          <mxGeometry x="1130" y="190" width="120" height="40" as="geometry" />
        </mxCell>
        <mxCell id="GUWDGtbuf75xFY82KTFk-8" value="Control Shard" style="rounded=0;whiteSpace=wrap;html=1;" vertex="1" parent="1">
          <mxGeometry x="990" y="190" width="120" height="40" as="geometry" />
        </mxCell>
        <mxCell id="GUWDGtbuf75xFY82KTFk-9" value="" style="endArrow=none;dashed=1;html=1;rounded=0;entryX=0.5;entryY=1;entryDx=0;entryDy=0;" edge="1" parent="1" source="GUWDGtbuf75xFY82KTFk-81" target="GUWDGtbuf75xFY82KTFk-6">
          <mxGeometry width="50" height="50" relative="1" as="geometry">
            <mxPoint x="120" y="1620" as="sourcePoint" />
            <mxPoint x="650" y="330" as="targetPoint" />
          </mxGeometry>
        </mxCell>
        <mxCell id="GUWDGtbuf75xFY82KTFk-10" value="" style="endArrow=none;dashed=1;html=1;rounded=0;entryX=0.5;entryY=1;entryDx=0;entryDy=0;" edge="1" parent="1" source="GUWDGtbuf75xFY82KTFk-96">
          <mxGeometry width="50" height="50" relative="1" as="geometry">
            <mxPoint x="1189" y="1640" as="sourcePoint" />
            <mxPoint x="1189.33" y="230" as="targetPoint" />
          </mxGeometry>
        </mxCell>
        <mxCell id="GUWDGtbuf75xFY82KTFk-11" value="" style="endArrow=none;dashed=1;html=1;rounded=0;entryX=0.5;entryY=1;entryDx=0;entryDy=0;" edge="1" parent="1" source="GUWDGtbuf75xFY82KTFk-89">
          <mxGeometry width="50" height="50" relative="1" as="geometry">
            <mxPoint x="909" y="1640" as="sourcePoint" />
            <mxPoint x="909.33" y="230" as="targetPoint" />
          </mxGeometry>
        </mxCell>
        <mxCell id="GUWDGtbuf75xFY82KTFk-12" value="" style="endArrow=none;dashed=1;html=1;rounded=0;entryX=0.5;entryY=1;entryDx=0;entryDy=0;" edge="1" parent="1" source="GUWDGtbuf75xFY82KTFk-90">
          <mxGeometry width="50" height="50" relative="1" as="geometry">
            <mxPoint x="769" y="1630" as="sourcePoint" />
            <mxPoint x="769.33" y="230" as="targetPoint" />
          </mxGeometry>
        </mxCell>
        <mxCell id="GUWDGtbuf75xFY82KTFk-13" value="" style="endArrow=none;dashed=1;html=1;rounded=0;entryX=0.5;entryY=1;entryDx=0;entryDy=0;" edge="1" parent="1" source="GUWDGtbuf75xFY82KTFk-84">
          <mxGeometry width="50" height="50" relative="1" as="geometry">
            <mxPoint x="1049" y="1630" as="sourcePoint" />
            <mxPoint x="1049.33" y="230" as="targetPoint" />
          </mxGeometry>
        </mxCell>
        <mxCell id="GUWDGtbuf75xFY82KTFk-14" value="" style="endArrow=none;dashed=1;html=1;rounded=0;entryX=0.5;entryY=1;entryDx=0;entryDy=0;" edge="1" parent="1" source="GUWDGtbuf75xFY82KTFk-91">
          <mxGeometry width="50" height="50" relative="1" as="geometry">
            <mxPoint x="629" y="1630" as="sourcePoint" />
            <mxPoint x="629.3299999999999" y="230" as="targetPoint" />
          </mxGeometry>
        </mxCell>
        <mxCell id="GUWDGtbuf75xFY82KTFk-15" value="" style="endArrow=none;dashed=1;html=1;rounded=0;entryX=0.5;entryY=1;entryDx=0;entryDy=0;" edge="1" parent="1" source="GUWDGtbuf75xFY82KTFk-87">
          <mxGeometry width="50" height="50" relative="1" as="geometry">
            <mxPoint x="480" y="1640" as="sourcePoint" />
            <mxPoint x="484.33" y="230" as="targetPoint" />
          </mxGeometry>
        </mxCell>
        <mxCell id="GUWDGtbuf75xFY82KTFk-16" value="" style="endArrow=none;dashed=1;html=1;rounded=0;entryX=0.5;entryY=1;entryDx=0;entryDy=0;" edge="1" parent="1" source="GUWDGtbuf75xFY82KTFk-85">
          <mxGeometry width="50" height="50" relative="1" as="geometry">
            <mxPoint x="309" y="1650" as="sourcePoint" />
            <mxPoint x="309.33" y="230" as="targetPoint" />
          </mxGeometry>
        </mxCell>
        <mxCell id="GUWDGtbuf75xFY82KTFk-17" value="" style="endArrow=classic;html=1;rounded=0;" edge="1" parent="1">
          <mxGeometry width="50" height="50" relative="1" as="geometry">
            <mxPoint x="120" y="280" as="sourcePoint" />
            <mxPoint x="310" y="280" as="targetPoint" />
          </mxGeometry>
        </mxCell>
        <mxCell id="GUWDGtbuf75xFY82KTFk-18" value="Click Button" style="text;html=1;strokeColor=none;fillColor=none;align=center;verticalAlign=middle;whiteSpace=wrap;rounded=0;" vertex="1" parent="1">
          <mxGeometry x="170" y="250" width="70" height="30" as="geometry" />
        </mxCell>
        <mxCell id="GUWDGtbuf75xFY82KTFk-19" value="activate(element)" style="text;html=1;strokeColor=none;fillColor=none;align=center;verticalAlign=middle;whiteSpace=wrap;rounded=0;" vertex="1" parent="1">
          <mxGeometry x="350" y="300" width="90" height="30" as="geometry" />
        </mxCell>
        <mxCell id="GUWDGtbuf75xFY82KTFk-21" value="" style="endArrow=classic;html=1;rounded=0;" edge="1" parent="1">
          <mxGeometry width="50" height="50" relative="1" as="geometry">
            <mxPoint x="310" y="330" as="sourcePoint" />
            <mxPoint x="480" y="330" as="targetPoint" />
          </mxGeometry>
        </mxCell>
        <mxCell id="GUWDGtbuf75xFY82KTFk-22" value="postAgentEvent(event)" style="text;html=1;strokeColor=none;fillColor=none;align=center;verticalAlign=middle;whiteSpace=wrap;rounded=0;" vertex="1" parent="1">
          <mxGeometry x="520" y="329" width="90" height="30" as="geometry" />
        </mxCell>
        <mxCell id="GUWDGtbuf75xFY82KTFk-23" value="" style="endArrow=classic;html=1;rounded=0;" edge="1" parent="1">
          <mxGeometry width="50" height="50" relative="1" as="geometry">
            <mxPoint x="490" y="360" as="sourcePoint" />
            <mxPoint x="630" y="360" as="targetPoint" />
          </mxGeometry>
        </mxCell>
        <mxCell id="GUWDGtbuf75xFY82KTFk-24" value="" style="endArrow=classic;html=1;rounded=0;" edge="1" parent="1">
          <mxGeometry width="50" height="50" relative="1" as="geometry">
            <mxPoint x="628" y="747" as="sourcePoint" />
            <mxPoint x="768" y="747" as="targetPoint" />
          </mxGeometry>
        </mxCell>
        <mxCell id="GUWDGtbuf75xFY82KTFk-26" value="" style="endArrow=classic;html=1;rounded=0;" edge="1" parent="1">
          <mxGeometry width="50" height="50" relative="1" as="geometry">
            <mxPoint x="630" y="400" as="sourcePoint" />
            <mxPoint x="630" y="470" as="targetPoint" />
            <Array as="points">
              <mxPoint x="720" y="400" />
              <mxPoint x="720" y="470" />
            </Array>
          </mxGeometry>
        </mxCell>
        <mxCell id="GUWDGtbuf75xFY82KTFk-27" value="parseReceivedMsg (event)" style="text;html=1;strokeColor=none;fillColor=none;align=center;verticalAlign=middle;whiteSpace=wrap;rounded=0;" vertex="1" parent="1">
          <mxGeometry x="638" y="370" width="170" height="30" as="geometry" />
        </mxCell>
        <mxCell id="GUWDGtbuf75xFY82KTFk-28" value="" style="endArrow=classic;html=1;rounded=0;" edge="1" parent="1">
          <mxGeometry width="50" height="50" relative="1" as="geometry">
            <mxPoint x="630" y="600" as="sourcePoint" />
            <mxPoint x="630" y="670" as="targetPoint" />
            <Array as="points">
              <mxPoint x="720" y="600" />
              <mxPoint x="720" y="670" />
            </Array>
          </mxGeometry>
        </mxCell>
        <mxCell id="GUWDGtbuf75xFY82KTFk-31" value="alt" style="text;html=1;strokeColor=none;fillColor=none;align=center;verticalAlign=middle;whiteSpace=wrap;rounded=0;" vertex="1" parent="1">
          <mxGeometry x="30" y="500" width="60" height="30" as="geometry" />
        </mxCell>
        <mxCell id="GUWDGtbuf75xFY82KTFk-34" value="Else" style="text;html=1;strokeColor=default;fillColor=default;align=center;verticalAlign=middle;whiteSpace=wrap;rounded=0;" vertex="1" parent="1">
          <mxGeometry x="44" y="1280" width="40" height="20" as="geometry" />
        </mxCell>
        <mxCell id="GUWDGtbuf75xFY82KTFk-35" value="The message&#39;s final destination is an entity" style="text;html=1;strokeColor=default;fillColor=default;align=center;verticalAlign=middle;whiteSpace=wrap;rounded=0;" vertex="1" parent="1">
          <mxGeometry x="46" y="540" width="144" height="40" as="geometry" />
        </mxCell>
        <mxCell id="GUWDGtbuf75xFY82KTFk-38" value="alt" style="text;html=1;strokeColor=default;fillColor=default;align=center;verticalAlign=middle;whiteSpace=wrap;rounded=0;" vertex="1" parent="1">
          <mxGeometry x="80" y="680" width="40" height="30" as="geometry" />
        </mxCell>
        <mxCell id="GUWDGtbuf75xFY82KTFk-40" value="The destination is the node" style="text;html=1;strokeColor=default;fillColor=default;align=center;verticalAlign=middle;whiteSpace=wrap;rounded=0;" vertex="1" parent="1">
          <mxGeometry x="84" y="720" width="146" height="25" as="geometry" />
        </mxCell>
        <mxCell id="GUWDGtbuf75xFY82KTFk-41" value="The destination is the agent" style="text;html=1;strokeColor=default;fillColor=default;align=center;verticalAlign=middle;whiteSpace=wrap;rounded=0;" vertex="1" parent="1">
          <mxGeometry x="84" y="852.5" width="150" height="25" as="geometry" />
        </mxCell>
        <mxCell id="GUWDGtbuf75xFY82KTFk-42" value="Create an Agent Wave" style="text;html=1;strokeColor=none;fillColor=none;align=center;verticalAlign=middle;whiteSpace=wrap;rounded=0;" vertex="1" parent="1">
          <mxGeometry x="642" y="570" width="120" height="30" as="geometry" />
        </mxCell>
        <mxCell id="GUWDGtbuf75xFY82KTFk-43" value="" style="endArrow=none;html=1;rounded=0;strokeWidth=1;" edge="1" parent="1">
          <mxGeometry width="50" height="50" relative="1" as="geometry">
            <mxPoint x="40" y="1269" as="sourcePoint" />
            <mxPoint x="1220" y="1269" as="targetPoint" />
          </mxGeometry>
        </mxCell>
        <mxCell id="GUWDGtbuf75xFY82KTFk-44" value="" style="endArrow=none;html=1;rounded=0;exitX=-0.004;exitY=0.555;exitDx=0;exitDy=0;exitPerimeter=0;strokeWidth=1;entryX=1.002;entryY=0.463;entryDx=0;entryDy=0;entryPerimeter=0;" edge="1" parent="1" target="GUWDGtbuf75xFY82KTFk-65">
          <mxGeometry width="50" height="50" relative="1" as="geometry">
            <mxPoint x="79.9980000000001" y="841.6500000000001" as="sourcePoint" />
            <mxPoint x="1200" y="842" as="targetPoint" />
          </mxGeometry>
        </mxCell>
        <mxCell id="GUWDGtbuf75xFY82KTFk-45" value="sendMessage(wave)" style="text;html=1;strokeColor=none;fillColor=none;align=center;verticalAlign=middle;whiteSpace=wrap;rounded=0;" vertex="1" parent="1">
          <mxGeometry x="638" y="714" width="122" height="30" as="geometry" />
        </mxCell>
        <mxCell id="GUWDGtbuf75xFY82KTFk-47" value="" style="endArrow=classic;html=1;rounded=0;" edge="1" parent="1">
          <mxGeometry width="50" height="50" relative="1" as="geometry">
            <mxPoint x="629" y="893" as="sourcePoint" />
            <mxPoint x="910" y="893" as="targetPoint" />
          </mxGeometry>
        </mxCell>
        <mxCell id="GUWDGtbuf75xFY82KTFk-98" value="" style="rounded=0;whiteSpace=wrap;html=1;" vertex="1" parent="1">
          <mxGeometry x="910" y="890" width="10" height="180" as="geometry" />
        </mxCell>
        <mxCell id="GUWDGtbuf75xFY82KTFk-48" value="sendMessage(wave)" style="text;html=1;strokeColor=none;fillColor=none;align=center;verticalAlign=middle;whiteSpace=wrap;rounded=0;" vertex="1" parent="1">
          <mxGeometry x="633.5" y="860" width="131" height="30" as="geometry" />
        </mxCell>
        <mxCell id="GUWDGtbuf75xFY82KTFk-50" value="" style="endArrow=classic;html=1;rounded=0;" edge="1" parent="1">
          <mxGeometry width="50" height="50" relative="1" as="geometry">
            <mxPoint x="770" y="790" as="sourcePoint" />
            <mxPoint x="910" y="790" as="targetPoint" />
          </mxGeometry>
        </mxCell>
        <mxCell id="GUWDGtbuf75xFY82KTFk-51" value="kill / start" style="text;html=1;strokeColor=none;fillColor=none;align=center;verticalAlign=middle;whiteSpace=wrap;rounded=0;" vertex="1" parent="1">
          <mxGeometry x="790" y="763" width="100" height="30" as="geometry" />
        </mxCell>
        <mxCell id="GUWDGtbuf75xFY82KTFk-52" value="" style="endArrow=classic;html=1;rounded=0;" edge="1" parent="1">
          <mxGeometry width="50" height="50" relative="1" as="geometry">
            <mxPoint x="620" y="820" as="sourcePoint" />
            <mxPoint x="120" y="820" as="targetPoint" />
          </mxGeometry>
        </mxCell>
        <mxCell id="GUWDGtbuf75xFY82KTFk-53" value="Send operation information" style="text;html=1;strokeColor=none;fillColor=none;align=center;verticalAlign=middle;whiteSpace=wrap;rounded=0;" vertex="1" parent="1">
          <mxGeometry x="140" y="790" width="150" height="30" as="geometry" />
        </mxCell>
        <mxCell id="GUWDGtbuf75xFY82KTFk-55" value="Send operation information" style="text;html=1;strokeColor=none;fillColor=none;align=center;verticalAlign=middle;whiteSpace=wrap;rounded=0;" vertex="1" parent="1">
          <mxGeometry x="130" y="1076" width="150" height="30" as="geometry" />
        </mxCell>
        <mxCell id="GUWDGtbuf75xFY82KTFk-58" value="" style="endArrow=classic;html=1;rounded=0;" edge="1" parent="1">
          <mxGeometry width="50" height="50" relative="1" as="geometry">
            <mxPoint x="620" y="1221" as="sourcePoint" />
            <mxPoint x="120" y="1221" as="targetPoint" />
          </mxGeometry>
        </mxCell>
        <mxCell id="GUWDGtbuf75xFY82KTFk-59" value="Send operation information" style="text;html=1;strokeColor=none;fillColor=none;align=center;verticalAlign=middle;whiteSpace=wrap;rounded=0;" vertex="1" parent="1">
          <mxGeometry x="130" y="1191" width="150" height="30" as="geometry" />
        </mxCell>
        <mxCell id="GUWDGtbuf75xFY82KTFk-61" value="signalAgentEvent(event)" style="text;html=1;strokeColor=none;fillColor=none;align=center;verticalAlign=middle;whiteSpace=wrap;rounded=0;" vertex="1" parent="1">
          <mxGeometry x="936" y="1040" width="100" height="30" as="geometry" />
        </mxCell>
        <mxCell id="GUWDGtbuf75xFY82KTFk-64" value="Update" style="text;html=1;strokeColor=none;fillColor=none;align=center;verticalAlign=middle;whiteSpace=wrap;rounded=0;" vertex="1" parent="1">
          <mxGeometry x="1075" y="1127" width="100" height="30" as="geometry" />
        </mxCell>
        <mxCell id="GUWDGtbuf75xFY82KTFk-70" value="" style="endArrow=classic;html=1;rounded=0;" edge="1" parent="1">
          <mxGeometry width="50" height="50" relative="1" as="geometry">
            <mxPoint x="620" y="1020" as="sourcePoint" />
            <mxPoint x="120" y="1020" as="targetPoint" />
          </mxGeometry>
        </mxCell>
        <mxCell id="GUWDGtbuf75xFY82KTFk-74" style="edgeStyle=orthogonalEdgeStyle;rounded=0;orthogonalLoop=1;jettySize=auto;html=1;exitX=0.5;exitY=1;exitDx=0;exitDy=0;" edge="1" parent="1" source="GUWDGtbuf75xFY82KTFk-34" target="GUWDGtbuf75xFY82KTFk-34">
          <mxGeometry relative="1" as="geometry" />
        </mxCell>
        <mxCell id="GUWDGtbuf75xFY82KTFk-75" value="" style="endArrow=classic;html=1;rounded=0;" edge="1" parent="1">
          <mxGeometry width="50" height="50" relative="1" as="geometry">
            <mxPoint x="640" y="1340" as="sourcePoint" />
            <mxPoint x="640" y="1410" as="targetPoint" />
            <Array as="points">
              <mxPoint x="720" y="1340" />
              <mxPoint x="720" y="1410" />
            </Array>
          </mxGeometry>
        </mxCell>
        <mxCell id="GUWDGtbuf75xFY82KTFk-76" value="Manage Operation" style="text;html=1;strokeColor=none;fillColor=none;align=center;verticalAlign=middle;whiteSpace=wrap;rounded=0;" vertex="1" parent="1">
          <mxGeometry x="633.5" y="1310" width="120" height="30" as="geometry" />
        </mxCell>
        <mxCell id="GUWDGtbuf75xFY82KTFk-79" value="" style="endArrow=classic;html=1;rounded=0;" edge="1" parent="1">
          <mxGeometry width="50" height="50" relative="1" as="geometry">
            <mxPoint x="630" y="1461" as="sourcePoint" />
            <mxPoint x="120" y="1461" as="targetPoint" />
          </mxGeometry>
        </mxCell>
        <mxCell id="GUWDGtbuf75xFY82KTFk-80" value="Send operation information" style="text;html=1;strokeColor=none;fillColor=none;align=center;verticalAlign=middle;whiteSpace=wrap;rounded=0;" vertex="1" parent="1">
          <mxGeometry x="130" y="1431" width="150" height="30" as="geometry" />
        </mxCell>
        <mxCell id="GUWDGtbuf75xFY82KTFk-83" value="" style="endArrow=none;dashed=1;html=1;rounded=0;entryX=0.5;entryY=1;entryDx=0;entryDy=0;" edge="1" parent="1" target="GUWDGtbuf75xFY82KTFk-81">
          <mxGeometry width="50" height="50" relative="1" as="geometry">
            <mxPoint x="120" y="1620" as="sourcePoint" />
            <mxPoint x="120" y="230" as="targetPoint" />
          </mxGeometry>
        </mxCell>
        <mxCell id="GUWDGtbuf75xFY82KTFk-86" value="" style="endArrow=none;dashed=1;html=1;rounded=0;entryX=0.5;entryY=1;entryDx=0;entryDy=0;" edge="1" parent="1" target="GUWDGtbuf75xFY82KTFk-85" source="nT9_gcaen2B__VPtsdAP-3">
          <mxGeometry width="50" height="50" relative="1" as="geometry">
            <mxPoint x="309" y="1650" as="sourcePoint" />
            <mxPoint x="309.33" y="230" as="targetPoint" />
          </mxGeometry>
        </mxCell>
        <mxCell id="GUWDGtbuf75xFY82KTFk-88" value="" style="endArrow=none;dashed=1;html=1;rounded=0;entryX=0.5;entryY=1;entryDx=0;entryDy=0;" edge="1" parent="1" target="GUWDGtbuf75xFY82KTFk-87">
          <mxGeometry width="50" height="50" relative="1" as="geometry">
            <mxPoint x="480" y="1640" as="sourcePoint" />
            <mxPoint x="484.33" y="230" as="targetPoint" />
          </mxGeometry>
        </mxCell>
        <mxCell id="GUWDGtbuf75xFY82KTFk-92" value="" style="endArrow=none;dashed=1;html=1;rounded=0;entryX=0.5;entryY=1;entryDx=0;entryDy=0;" edge="1" parent="1" target="GUWDGtbuf75xFY82KTFk-91">
          <mxGeometry width="50" height="50" relative="1" as="geometry">
            <mxPoint x="629" y="1630" as="sourcePoint" />
            <mxPoint x="629.3299999999999" y="230" as="targetPoint" />
          </mxGeometry>
        </mxCell>
        <mxCell id="GUWDGtbuf75xFY82KTFk-94" value="" style="endArrow=none;dashed=1;html=1;rounded=0;entryX=0.5;entryY=1;entryDx=0;entryDy=0;" edge="1" parent="1" target="GUWDGtbuf75xFY82KTFk-90">
          <mxGeometry width="50" height="50" relative="1" as="geometry">
            <mxPoint x="769" y="1630" as="sourcePoint" />
            <mxPoint x="769.33" y="230" as="targetPoint" />
          </mxGeometry>
        </mxCell>
        <mxCell id="GUWDGtbuf75xFY82KTFk-95" value="" style="endArrow=none;dashed=1;html=1;rounded=0;entryX=0.5;entryY=1;entryDx=0;entryDy=0;" edge="1" parent="1" target="GUWDGtbuf75xFY82KTFk-89">
          <mxGeometry width="50" height="50" relative="1" as="geometry">
            <mxPoint x="909" y="1640" as="sourcePoint" />
            <mxPoint x="909.33" y="230" as="targetPoint" />
          </mxGeometry>
        </mxCell>
        <mxCell id="GUWDGtbuf75xFY82KTFk-66" value="" style="endArrow=classic;html=1;rounded=0;" edge="1" parent="1">
          <mxGeometry width="50" height="50" relative="1" as="geometry">
            <mxPoint x="920" y="943" as="sourcePoint" />
            <mxPoint x="1050" y="943" as="targetPoint" />
          </mxGeometry>
        </mxCell>
        <mxCell id="GUWDGtbuf75xFY82KTFk-67" value="signalAgentEvent(event)" style="text;html=1;strokeColor=none;fillColor=none;align=center;verticalAlign=middle;whiteSpace=wrap;rounded=0;" vertex="1" parent="1">
          <mxGeometry x="920" y="910" width="131" height="30" as="geometry" />
        </mxCell>
        <mxCell id="GUWDGtbuf75xFY82KTFk-68" value="" style="endArrow=classic;html=1;rounded=0;" edge="1" parent="1">
          <mxGeometry width="50" height="50" relative="1" as="geometry">
            <mxPoint x="1040" y="1016" as="sourcePoint" />
            <mxPoint x="919" y="1016" as="targetPoint" />
          </mxGeometry>
        </mxCell>
        <mxCell id="GUWDGtbuf75xFY82KTFk-69" value="stop" style="text;html=1;strokeColor=none;fillColor=none;align=center;verticalAlign=middle;whiteSpace=wrap;rounded=0;" vertex="1" parent="1">
          <mxGeometry x="913.75" y="989" width="131" height="30" as="geometry" />
        </mxCell>
        <mxCell id="GUWDGtbuf75xFY82KTFk-60" value="" style="endArrow=classic;html=1;rounded=0;exitX=-0.064;exitY=0.973;exitDx=0;exitDy=0;exitPerimeter=0;" edge="1" parent="1" source="GUWDGtbuf75xFY82KTFk-98">
          <mxGeometry width="50" height="50" relative="1" as="geometry">
            <mxPoint x="1110" y="1070" as="sourcePoint" />
            <mxPoint x="1185" y="1066" as="targetPoint" />
          </mxGeometry>
        </mxCell>
        <mxCell id="GUWDGtbuf75xFY82KTFk-54" value="" style="endArrow=classic;html=1;rounded=0;" edge="1" parent="1">
          <mxGeometry width="50" height="50" relative="1" as="geometry">
            <mxPoint x="620" y="1106" as="sourcePoint" />
            <mxPoint x="120" y="1106" as="targetPoint" />
          </mxGeometry>
        </mxCell>
        <mxCell id="GUWDGtbuf75xFY82KTFk-63" value="" style="endArrow=classic;html=1;rounded=0;" edge="1" parent="1">
          <mxGeometry width="50" height="50" relative="1" as="geometry">
            <mxPoint x="1195" y="1154" as="sourcePoint" />
            <mxPoint x="640" y="1154" as="targetPoint" />
          </mxGeometry>
        </mxCell>
        <mxCell id="GUWDGtbuf75xFY82KTFk-100" value="" style="endArrow=none;dashed=1;html=1;rounded=0;entryX=0.5;entryY=1;entryDx=0;entryDy=0;" edge="1" parent="1" target="GUWDGtbuf75xFY82KTFk-84">
          <mxGeometry width="50" height="50" relative="1" as="geometry">
            <mxPoint x="1049" y="1630" as="sourcePoint" />
            <mxPoint x="1049.33" y="230" as="targetPoint" />
          </mxGeometry>
        </mxCell>
        <mxCell id="GUWDGtbuf75xFY82KTFk-101" value="" style="endArrow=none;dashed=1;html=1;rounded=0;entryX=0.5;entryY=1;entryDx=0;entryDy=0;" edge="1" parent="1" target="GUWDGtbuf75xFY82KTFk-96">
          <mxGeometry width="50" height="50" relative="1" as="geometry">
            <mxPoint x="1189" y="1640" as="sourcePoint" />
            <mxPoint x="1189.33" y="230" as="targetPoint" />
          </mxGeometry>
        </mxCell>
        <mxCell id="GUWDGtbuf75xFY82KTFk-65" value="" style="rounded=0;whiteSpace=wrap;html=1;fillColor=none;" vertex="1" parent="1">
          <mxGeometry x="80" y="680" width="990" height="350" as="geometry" />
        </mxCell>
        <mxCell id="nT9_gcaen2B__VPtsdAP-1" value="Send operation information" style="text;html=1;strokeColor=none;fillColor=none;align=center;verticalAlign=middle;whiteSpace=wrap;rounded=0;" vertex="1" parent="1">
          <mxGeometry x="134" y="988" width="150" height="30" as="geometry" />
        </mxCell>
        <mxCell id="nT9_gcaen2B__VPtsdAP-2" value="Update the interface specification or the status" style="text;html=1;strokeColor=default;fillColor=default;align=center;verticalAlign=middle;whiteSpace=wrap;rounded=0;" vertex="1" parent="1">
          <mxGeometry x="46" y="1310" width="154" height="30" as="geometry" />
        </mxCell>
        <mxCell id="nT9_gcaen2B__VPtsdAP-4" value="" style="endArrow=none;dashed=1;html=1;rounded=0;entryX=0.5;entryY=1;entryDx=0;entryDy=0;" edge="1" parent="1" target="nT9_gcaen2B__VPtsdAP-3">
          <mxGeometry width="50" height="50" relative="1" as="geometry">
            <mxPoint x="309" y="1650" as="sourcePoint" />
            <mxPoint x="310" y="330" as="targetPoint" />
          </mxGeometry>
        </mxCell>
        <mxCell id="nT9_gcaen2B__VPtsdAP-3" value="" style="rounded=0;whiteSpace=wrap;html=1;" vertex="1" parent="1">
          <mxGeometry x="300" y="1350" width="20" height="40" as="geometry" />
        </mxCell>
        <mxCell id="nT9_gcaen2B__VPtsdAP-5" value="" style="endArrow=classic;html=1;rounded=0;exitX=0.492;exitY=0.878;exitDx=0;exitDy=0;exitPerimeter=0;entryX=0.237;entryY=0.878;entryDx=0;entryDy=0;entryPerimeter=0;" edge="1" parent="1">
          <mxGeometry width="50" height="50" relative="1" as="geometry">
            <mxPoint x="620.56" y="1368.4399999999998" as="sourcePoint" />
            <mxPoint x="319.65999999999985" y="1368.4399999999998" as="targetPoint" />
          </mxGeometry>
        </mxCell>
        <mxCell id="nT9_gcaen2B__VPtsdAP-6" value="updateGui(entity, specification)" style="text;html=1;strokeColor=none;fillColor=none;align=center;verticalAlign=middle;whiteSpace=wrap;rounded=0;" vertex="1" parent="1">
          <mxGeometry x="360" y="1338" width="180" height="30" as="geometry" />
        </mxCell>
      </root>
    </mxGraphModel>
  </diagram>
</mxfile>
